<svg preserveAspectRatio="none" width="100%" height="100%" overflow="visible" style="display: block;" viewBox="0 0 8 8" fill="none" xmlns="http://www.w3.org/2000/svg">
<g id="Frame 1017">
<rect width="8" height="8" rx="3" fill="url(#paint0_linear_0_74)"/>
<g id="Vector">
<path d="M3.51521 1.91391C3.71298 1.91391 3.8864 1.95285 4.03544 2.03075C4.18449 2.10526 4.302 2.21365 4.38799 2.35589C4.47111 2.49814 4.51269 2.66578 4.51269 2.85883C4.51269 3.05188 4.47543 3.21108 4.4009 3.33639C4.32638 3.45831 4.2246 3.55822 4.09562 3.63612C3.96665 3.71062 3.82048 3.77326 3.65711 3.82406L3.41643 3.89625C3.27886 3.93689 3.15844 3.98261 3.05526 4.03341C2.95494 4.08421 2.87611 4.15199 2.81878 4.23666C2.76433 4.32133 2.73711 4.43478 2.73711 4.57702C2.73711 4.79039 2.80447 4.95298 2.93919 5.06474C3.01857 5.13118 3.1099 5.17836 3.21314 5.20646C3.21914 5.31628 3.23967 5.41726 3.2744 5.50953C3.15156 5.49244 3.03981 5.45769 2.93919 5.4051C2.79014 5.33059 2.67262 5.2222 2.58664 5.07995C2.50352 4.93771 2.46194 4.77007 2.46194 4.57702C2.46194 4.38397 2.4992 4.22477 2.57372 4.09946C2.64825 3.97754 2.75003 3.87762 2.87901 3.79973C3.00798 3.72523 3.15415 3.66258 3.31752 3.61178L3.55819 3.53959L3.60898 3.52411C3.72561 3.48743 3.82908 3.44689 3.91937 3.40244C4.01969 3.35164 4.09852 3.28386 4.15585 3.19919C4.2103 3.11452 4.23752 3.00106 4.23752 2.85883C4.23752 2.64546 4.17015 2.48287 4.03544 2.37111C3.89786 2.25596 3.72444 2.19842 3.51521 2.19842C3.47586 2.19842 3.43755 2.20041 3.40027 2.20433C3.39039 2.10389 3.3679 2.01122 3.33273 1.92623C3.39153 1.91802 3.45236 1.91391 3.51521 1.91391Z" fill="url(#paint1_linear_0_74)"/>
<path d="M2.87084 2.48095C2.90601 2.56592 2.92853 2.65858 2.93842 2.75901C2.83724 2.76966 2.7437 2.79476 2.65783 2.83436C2.54033 2.88854 2.44716 2.97322 2.37837 3.08835C2.30959 3.2035 2.27517 3.35423 2.27517 3.5405V3.77928H2V3.5405C2 3.30343 2.04732 3.10699 2.1419 2.9512C2.23361 2.79203 2.35974 2.6718 2.52023 2.59052C2.62775 2.53508 2.74464 2.49858 2.87084 2.48095Z" fill="url(#paint2_linear_0_74)"/>
<path d="M4.72736 2.4907C4.84951 2.50787 4.96067 2.54256 5.06081 2.5949C5.20986 2.66941 5.32738 2.7778 5.41336 2.92005C5.49648 3.06229 5.53806 3.22993 5.53806 3.42298C5.53806 3.61603 5.5008 3.77523 5.42628 3.90054C5.35175 4.02246 5.24997 4.12238 5.12099 4.20027C4.99202 4.27477 4.84585 4.33742 4.68248 4.38822L4.44181 4.46041C4.30423 4.50105 4.18382 4.54676 4.08063 4.59756C3.98031 4.64836 3.90148 4.71614 3.84415 4.80081C3.7897 4.88548 3.76248 4.99894 3.76248 5.14117C3.76248 5.35454 3.82985 5.51713 3.96456 5.62889C4.10214 5.74404 4.27556 5.80158 4.48479 5.80158C4.49543 5.80158 4.50599 5.80137 4.51648 5.80108C4.52442 5.90274 4.54509 5.99661 4.57833 6.0828C4.54766 6.08489 4.51649 6.08609 4.48479 6.08609C4.28702 6.08609 4.1136 6.04715 3.96456 5.96926C3.81551 5.89475 3.698 5.78635 3.61201 5.64411C3.52889 5.50186 3.48731 5.33422 3.48731 5.14117C3.48731 4.94812 3.52457 4.78892 3.5991 4.66361C3.67362 4.54169 3.7754 4.44178 3.90438 4.36388C4.03335 4.28938 4.17952 4.22674 4.34289 4.17594L4.58357 4.10375L4.63436 4.08826C4.75098 4.05159 4.85445 4.01104 4.94474 3.96659C5.04506 3.91579 5.12389 3.84801 5.18122 3.76334C5.23567 3.67867 5.26289 3.56522 5.26289 3.42298C5.26289 3.20961 5.19553 3.04702 5.06081 2.93526C4.98112 2.86856 4.88938 2.82124 4.78564 2.79318C4.78037 2.68369 4.76097 2.58287 4.72736 2.4907Z" fill="url(#paint3_linear_0_74)"/>
<path d="M6 4.45932C6 4.69639 5.95269 4.89283 5.8581 5.04862C5.76639 5.20779 5.64027 5.32802 5.47977 5.4093C5.34742 5.47755 5.20088 5.517 5.04023 5.52795C5.00699 5.44176 4.98636 5.34788 4.97842 5.24623C5.11198 5.24256 5.23324 5.21569 5.34217 5.16546C5.45967 5.11128 5.55284 5.02661 5.62163 4.91147C5.69041 4.79632 5.72483 4.64559 5.72483 4.45932V4.22054H6V4.45932Z" fill="url(#paint4_linear_0_74)"/>
</g>
</g>
<defs>
<linearGradient id="paint0_linear_0_74" x1="4" y1="0" x2="4" y2="8" gradientUnits="userSpaceOnUse">
<stop stop-color="#E0F8FF"/>
<stop offset="1" stop-color="#D1F5FF"/>
</linearGradient>
<linearGradient id="paint1_linear_0_74" x1="5.2058" y1="2.01802" x2="2.76091" y2="6.17571" gradientUnits="userSpaceOnUse">
<stop stop-color="#009ECA"/>
<stop offset="0.5" stop-color="#0098C2"/>
<stop offset="1" stop-color="#009ECA"/>
</linearGradient>
<linearGradient id="paint2_linear_0_74" x1="5.2058" y1="2.01802" x2="2.76091" y2="6.17571" gradientUnits="userSpaceOnUse">
<stop stop-color="#009ECA"/>
<stop offset="0.5" stop-color="#0098C2"/>
<stop offset="1" stop-color="#009ECA"/>
</linearGradient>
<linearGradient id="paint3_linear_0_74" x1="5.2058" y1="2.01802" x2="2.76091" y2="6.17571" gradientUnits="userSpaceOnUse">
<stop stop-color="#009ECA"/>
<stop offset="0.5" stop-color="#0098C2"/>
<stop offset="1" stop-color="#009ECA"/>
</linearGradient>
<linearGradient id="paint4_linear_0_74" x1="5.2058" y1="2.01802" x2="2.76091" y2="6.17571" gradientUnits="userSpaceOnUse">
<stop stop-color="#009ECA"/>
<stop offset="0.5" stop-color="#0098C2"/>
<stop offset="1" stop-color="#009ECA"/>
</linearGradient>
</defs>
</svg>
