<svg preserveAspectRatio="none" width="100%" height="100%" overflow="visible" style="display: block;" viewBox="0 0 10.222 10.222" fill="none" xmlns="http://www.w3.org/2000/svg">
<g id="Frame">
<path id="Vector" d="M3.22493 8.94421C3.79344 8.67154 4.43376 8.51829 5.11096 8.51829C5.78816 8.51829 6.42848 8.67154 6.997 8.94421M2.8962 7.24055H7.32572C8.04134 7.24055 8.39911 7.24055 8.67246 7.10127C8.91289 6.97878 9.10834 6.78333 9.23083 6.5429C9.37011 6.26955 9.37011 5.91178 9.37011 5.19616V3.32213C9.37011 2.60653 9.37011 2.24873 9.23083 1.9754C9.10834 1.73498 8.91289 1.53951 8.67246 1.41701C8.39911 1.27774 8.04134 1.27774 7.32572 1.27774H2.8962C2.1806 1.27774 1.8228 1.27774 1.54947 1.41701C1.30905 1.53951 1.11358 1.73498 0.991079 1.9754C0.851814 2.24873 0.851814 2.60653 0.851814 3.32213V5.19616C0.851814 5.91178 0.851814 6.26955 0.991079 6.5429C1.11358 6.78333 1.30905 6.97878 1.54947 7.10127C1.8228 7.24055 2.1806 7.24055 2.8962 7.24055Z" stroke="var(--stroke-0, #909091)" stroke-width="0.851829" stroke-linecap="round" stroke-linejoin="round"/>
</g>
</svg>
