<svg preserveAspectRatio="none" width="100%" height="100%" overflow="visible" style="display: block;" viewBox="0 0 6.22144 6.22144" fill="none" xmlns="http://www.w3.org/2000/svg">
<g id="Frame">
<path id="Vector" d="M1.55554 0.777679V3.8884M1.55554 3.8884C1.12604 3.8884 0.777863 4.23657 0.777863 4.66608C0.777863 5.09559 1.12604 5.44376 1.55554 5.44376C1.98504 5.44376 2.33322 5.09559 2.33322 4.66608M1.55554 3.8884C1.98504 3.8884 2.33322 4.23657 2.33322 4.66608M2.33322 4.66608C2.95197 4.66608 3.54539 4.42028 3.98294 3.98276C4.42046 3.54521 4.66626 2.95179 4.66626 2.33304M4.66626 2.33304C5.09578 2.33304 5.44394 1.98486 5.44394 1.55536C5.44394 1.12586 5.09578 0.777679 4.66626 0.777679C4.23675 0.777679 3.88858 1.12586 3.88858 1.55536C3.88858 1.98486 4.23675 2.33304 4.66626 2.33304Z" stroke="var(--stroke-0, #535355)" stroke-width="0.518453" stroke-linecap="round" stroke-linejoin="round"/>
</g>
</svg>
