<svg preserveAspectRatio="none" width="100%" height="100%" overflow="visible" style="display: block;" viewBox="0 0 8.36341 8.36341" fill="none" xmlns="http://www.w3.org/2000/svg">
<g id="Frame">
<path id="Vector" d="M3.13641 7.31801V4.73929C3.13641 4.54411 3.13641 4.44654 3.17439 4.372C3.20781 4.30642 3.26112 4.25313 3.32669 4.21971C3.40123 4.18173 3.49879 4.18173 3.69397 4.18173H4.66971C4.86489 4.18173 4.96246 4.18173 5.037 4.21971C5.10258 4.25313 5.15586 4.30642 5.18928 4.372C5.22727 4.44654 5.22727 4.54411 5.22727 4.73929V7.31801M3.83953 0.96321L1.47606 2.80146C1.31808 2.92434 1.23908 2.98578 1.18217 3.06273C1.13176 3.13088 1.09421 3.20766 1.07136 3.2893C1.04556 3.38146 1.04556 3.48154 1.04556 3.6817V6.20289C1.04556 6.59322 1.04556 6.78836 1.12152 6.93748C1.18834 7.06861 1.29496 7.17524 1.4261 7.24204C1.57519 7.31801 1.77035 7.31801 2.16068 7.31801H6.203C6.59333 7.31801 6.78851 7.31801 6.93759 7.24204C7.06872 7.17524 7.17535 7.06861 7.24215 6.93748C7.31812 6.78836 7.31812 6.59322 7.31812 6.20289V3.6817C7.31812 3.48154 7.31812 3.38146 7.29233 3.2893C7.26947 3.20766 7.23191 3.13088 7.18152 3.06273C7.12461 2.98578 7.04561 2.92434 6.88761 2.80146L4.52415 0.96321C4.40173 0.867989 4.3405 0.820377 4.2729 0.802075C4.21327 0.785926 4.15041 0.785926 4.09078 0.802075C4.02318 0.820377 3.96195 0.867989 3.83953 0.96321Z" stroke="var(--stroke-0, #909091)" stroke-width="0.696951" stroke-linecap="round" stroke-linejoin="round"/>
</g>
</svg>
