<svg preserveAspectRatio="none" width="100%" height="100%" overflow="visible" style="display: block;" viewBox="0 0 9.29268 9.29268" fill="none" xmlns="http://www.w3.org/2000/svg">
<g id="Frame">
<path id="Vector" d="M3.48491 1.16159V8.1311M3.02027 1.16159H6.27271C6.92328 1.16159 7.24852 1.16159 7.49702 1.28819C7.7156 1.39956 7.89328 1.57725 8.00464 1.79582C8.13125 2.0443 8.13125 2.36957 8.13125 3.02012V6.27256C8.13125 6.92313 8.13125 7.24837 8.00464 7.49687C7.89328 7.71544 7.7156 7.89313 7.49702 8.00448C7.24852 8.1311 6.92328 8.1311 6.27271 8.1311H3.02027C2.36972 8.1311 2.04445 8.1311 1.79598 8.00448C1.57741 7.89313 1.39971 7.71544 1.28834 7.49687C1.16174 7.24837 1.16174 6.92313 1.16174 6.27256V3.02012C1.16174 2.36957 1.16174 2.0443 1.28834 1.79582C1.39971 1.57725 1.57741 1.39956 1.79598 1.28819C2.04445 1.16159 2.36972 1.16159 3.02027 1.16159Z" stroke="var(--stroke-0, #909091)" stroke-width="0.77439" stroke-linecap="round" stroke-linejoin="round"/>
</g>
</svg>
