<svg preserveAspectRatio="none" width="100%" height="100%" overflow="visible" style="display: block;" viewBox="0 0 10.222 10.222" fill="none" xmlns="http://www.w3.org/2000/svg">
<g id="Frame">
<path id="Vector" d="M3.83301 8.94424V5.79247C3.83301 5.55392 3.83301 5.43466 3.87943 5.34356C3.92026 5.2634 3.98542 5.19828 4.06556 5.15744C4.15667 5.11101 4.27591 5.11101 4.51447 5.11101H5.70703C5.94558 5.11101 6.06484 5.11101 6.15594 5.15744C6.2361 5.19828 6.30122 5.2634 6.34207 5.34356C6.38849 5.43466 6.38849 5.55392 6.38849 5.79247V8.94424M4.69237 1.17726L1.80369 3.42401C1.61059 3.5742 1.51405 3.6493 1.44449 3.74334C1.38288 3.82664 1.33698 3.92049 1.30905 4.02026C1.27752 4.13291 1.27752 4.25522 1.27752 4.49987V7.58132C1.27752 8.05838 1.27752 8.29689 1.37036 8.47914C1.45203 8.63942 1.58234 8.76974 1.74263 8.85139C1.92484 8.94424 2.16337 8.94424 2.64044 8.94424H7.58105C8.05812 8.94424 8.29668 8.94424 8.47888 8.85139C8.63915 8.76974 8.76948 8.63942 8.85113 8.47914C8.94398 8.29689 8.94398 8.05838 8.94398 7.58132V4.49987C8.94398 4.25522 8.94398 4.13291 8.91246 4.02026C8.88452 3.92049 8.83861 3.82664 8.77702 3.74334C8.70747 3.6493 8.61092 3.5742 8.41781 3.42402L5.52913 1.17726C5.3795 1.06088 5.30467 1.00269 5.22204 0.980321C5.14917 0.960584 5.07233 0.960584 4.99946 0.980321C4.91683 1.00269 4.842 1.06088 4.69237 1.17726Z" stroke="var(--stroke-0, #909091)" stroke-width="0.851829" stroke-linecap="round" stroke-linejoin="round"/>
</g>
</svg>
