<svg preserveAspectRatio="none" width="100%" height="100%" overflow="visible" style="display: block;" viewBox="0 0 9.29268 9.29268" fill="none" xmlns="http://www.w3.org/2000/svg">
<g id="Frame">
<path id="Vector" d="M0.937188 4.92253C0.88446 4.83901 0.858092 4.79727 0.843332 4.73288C0.832247 4.68452 0.832247 4.60824 0.843332 4.55988C0.858092 4.49549 0.88446 4.45375 0.937188 4.37023C1.37294 3.68027 2.66999 1.93601 4.64663 1.93601C6.62326 1.93601 7.92032 3.68027 8.35607 4.37023C8.40881 4.45375 8.43518 4.49549 8.44993 4.55988C8.461 4.60824 8.461 4.68452 8.44993 4.73288C8.43518 4.79727 8.40881 4.83901 8.35607 4.92253C7.92032 5.61251 6.62326 7.35675 4.64663 7.35675C2.66999 7.35675 1.37294 5.61251 0.937188 4.92253Z" stroke="var(--stroke-0, #909091)" stroke-width="0.77439" stroke-linecap="round" stroke-linejoin="round"/>
<path id="Vector_2" d="M4.64647 5.80793C5.28801 5.80793 5.80806 5.28788 5.80806 4.64634C5.80806 4.0048 5.28801 3.48476 4.64647 3.48476C4.00493 3.48476 3.48488 4.0048 3.48488 4.64634C3.48488 5.28788 4.00493 5.80793 4.64647 5.80793Z" stroke="var(--stroke-0, #909091)" stroke-width="0.77439" stroke-linecap="round" stroke-linejoin="round"/>
</g>
</svg>
