<svg preserveAspectRatio="none" width="100%" height="100%" overflow="visible" style="display: block;" viewBox="0 0 7.3654 7.3654" fill="none" xmlns="http://www.w3.org/2000/svg">
<path id="Vector" d="M2.04594 3.6827H2.04958M5.31945 3.6827H5.32309M3.6827 5.31945H3.68633M3.6827 2.04594H3.68633M0.409189 2.15506V5.21034C0.409189 5.82146 0.409189 6.12699 0.528119 6.36043C0.632733 6.56575 0.79966 6.73266 1.00498 6.83727C1.23839 6.95621 1.54395 6.95621 2.15506 6.95621H5.21034C5.82146 6.95621 6.12699 6.95621 6.36043 6.83727C6.56575 6.73266 6.73266 6.56575 6.83727 6.36043C6.95621 6.12699 6.95621 5.82146 6.95621 5.21034V2.15506C6.95621 1.54395 6.95621 1.23839 6.83727 1.00498C6.73266 0.79966 6.56575 0.632733 6.36043 0.528119C6.12699 0.409189 5.82146 0.409189 5.21034 0.409189H2.15506C1.54395 0.409189 1.23839 0.409189 1.00498 0.528119C0.79966 0.632733 0.632733 0.79966 0.528119 1.00498C0.409189 1.23839 0.409189 1.54395 0.409189 2.15506Z" stroke="var(--stroke-0, #00A0CD)" stroke-width="0.818377" stroke-linecap="round" stroke-linejoin="round"/>
</svg>
