<svg preserveAspectRatio="none" width="100%" height="100%" overflow="visible" style="display: block;" viewBox="0 0 9.29268 9.29268" fill="none" xmlns="http://www.w3.org/2000/svg">
<g id="Frame">
<path id="Vector" d="M8.13111 3.67835V3.02012C8.13111 2.36957 8.13111 2.0443 8.0045 1.79582C7.89314 1.57725 7.71546 1.39956 7.49689 1.28819C7.24839 1.16159 6.92314 1.16159 6.27258 1.16159H3.02014C2.36959 1.16159 2.04431 1.16159 1.79584 1.28819C1.57727 1.39956 1.39957 1.57725 1.28821 1.79582C1.1616 2.0443 1.1616 2.36957 1.1616 3.02012V6.27256C1.1616 6.92313 1.1616 7.24837 1.28821 7.49687C1.39957 7.71544 1.57727 7.89313 1.79584 8.00449C2.04431 8.1311 2.36959 8.1311 3.02014 8.1311H3.67837M6.73187 6.85773L6.07429 8.07894C5.96681 8.27854 5.91307 8.37836 5.84755 8.40442C5.79071 8.42703 5.72648 8.42142 5.6744 8.38928C5.61438 8.35226 5.57876 8.24466 5.50752 8.02946L4.45292 4.84431C4.3905 4.65583 4.35929 4.56162 4.38175 4.49886C4.40126 4.44423 4.44424 4.40125 4.49888 4.38173C4.56164 4.35928 4.65584 4.39048 4.84433 4.4529L8.02944 5.5075C8.24468 5.57879 8.35228 5.61441 8.3893 5.67438C8.42143 5.7265 8.42701 5.7907 8.4044 5.84758C8.37838 5.91305 8.27856 5.96679 8.07892 6.07428L6.85775 6.73185C6.82735 6.74823 6.81213 6.75644 6.79881 6.76693C6.787 6.7763 6.77632 6.78699 6.76695 6.7988C6.75646 6.81212 6.74825 6.82733 6.73187 6.85773Z" stroke="var(--stroke-0, #00A0CD)" stroke-width="0.77439" stroke-linecap="round" stroke-linejoin="round"/>
</g>
</svg>
