<svg preserveAspectRatio="none" width="100%" height="100%" overflow="visible" style="display: block;" viewBox="0 0 14.3662 14.9798" fill="none" xmlns="http://www.w3.org/2000/svg">
<path id="Vector" d="M9.77939 2.08408C10.2174 2.14569 10.6168 2.27003 10.9767 2.4581H10.9757C11.5115 2.72597 11.9341 3.11564 12.2433 3.62705H12.2442C12.5433 4.13891 12.6925 4.74164 12.6925 5.43369C12.6925 6.12489 12.5588 6.69751 12.2901 7.14951V7.15048C12.0221 7.58893 11.6557 7.94789 11.1925 8.22763H11.1915C10.7299 8.49425 10.2069 8.71896 9.62314 8.90048L8.76572 9.15732C8.27665 9.30179 7.84848 9.46348 7.48251 9.64365L7.48349 9.64462C7.13023 9.82352 6.8518 10.0606 6.65048 10.3575L6.65146 10.3585C6.46127 10.6542 6.36435 11.0531 6.36435 11.5567C6.36437 12.3107 6.60205 12.8817 7.07431 13.2735C7.55866 13.6789 8.17022 13.8818 8.91025 13.8819C8.9477 13.8819 8.98542 13.882 9.02255 13.881L9.04892 13.88L9.05185 13.9063C9.07995 14.2661 9.15226 14.5981 9.26962 14.9024L9.2833 14.9376L9.24619 14.9405C9.13634 14.948 9.02392 14.9522 8.91025 14.9522C8.29062 14.9522 7.73671 14.8451 7.24912 14.631L7.04404 14.5323C6.57538 14.298 6.19282 13.9706 5.89755 13.5499L5.77646 13.3634C5.47736 12.8515 5.32823 12.2487 5.32822 11.5567C5.32822 10.8654 5.46181 10.2929 5.73056 9.84091V9.83994C5.99858 9.40152 6.36504 9.04252 6.82822 8.76279L7.18564 8.5704C7.55489 8.38632 7.95858 8.22614 8.39658 8.08994L9.25497 7.8331L9.43564 7.77744C9.84993 7.64714 10.2171 7.50337 10.5372 7.3458C10.8467 7.18905 11.0973 6.98673 11.2901 6.73935L11.3692 6.63095C11.5592 6.33527 11.6554 5.93706 11.6554 5.43369C11.6554 4.67961 11.4177 4.10873 10.9454 3.71689C10.6646 3.48194 10.3416 3.31486 9.97568 3.21591L9.95615 3.21103L9.95517 3.19052C9.93649 2.80296 9.86775 2.44662 9.74912 2.12119L9.73349 2.07724L9.77939 2.08408ZM14.338 8.24814V9.12705C14.3379 9.97472 14.1681 10.6789 13.8282 11.2393L13.8292 11.2403C13.4997 11.8121 13.0457 12.245 12.4688 12.5372C11.9936 12.7822 11.4675 12.9237 10.8917 12.963L10.8712 12.964L10.8643 12.9454C10.7449 12.6356 10.6702 12.2982 10.6417 11.9337L10.6397 11.9044L10.669 11.9034C11.1415 11.8904 11.5699 11.7954 11.9542 11.6183C12.3676 11.4276 12.6962 11.1294 12.9386 10.7237C13.1802 10.3191 13.3018 9.78741 13.3018 9.12705V8.24814H14.338ZM5.45517 0.0274358C6.16366 0.0274358 6.78658 0.167351 7.32236 0.447358H7.32138C7.79044 0.681848 8.17343 1.00959 8.46884 1.43076L8.58994 1.6163L8.6954 1.81259C8.92434 2.28026 9.03815 2.81743 9.03818 3.42294C9.03818 4.11434 8.90468 4.68768 8.63583 5.13974C8.40125 5.52352 8.0913 5.84629 7.70712 6.10849L7.53818 6.21689C7.0766 6.48352 6.55356 6.7082 5.96982 6.88974H5.96884L5.11142 7.14658C4.62233 7.29106 4.1942 7.45273 3.82822 7.6329C3.51867 7.7897 3.26807 7.99285 3.07529 8.24033L2.99716 8.34872C2.80709 8.6444 2.71008 9.04257 2.71005 9.54599C2.71006 10.3001 2.94869 10.8709 3.42099 11.2628C3.63077 11.4383 3.86391 11.5763 4.12119 11.6759L4.38583 11.7628L4.40537 11.7677L4.40634 11.7882C4.42762 12.1768 4.50054 12.5337 4.62314 12.8595L4.63974 12.9034L4.59384 12.8966C4.15362 12.8354 3.75216 12.7113 3.39072 12.5226C2.9218 12.2881 2.53863 11.9601 2.24326 11.5392L2.12216 11.3526C1.82305 10.8408 1.67392 10.238 1.67392 9.54599C1.67395 8.85474 1.80749 8.28217 2.07626 7.83017C2.3443 7.39166 2.71067 7.03182 3.17392 6.75205L3.53232 6.55966C3.90126 6.37579 4.30472 6.21626 4.74228 6.08017H4.74326L5.60068 5.82236L5.78134 5.76767L6.0831 5.66708C6.37628 5.56422 6.64273 5.45328 6.8829 5.33505C7.23659 5.15594 7.51356 4.91762 7.71494 4.62021C7.90491 4.32453 8.00205 3.9263 8.00205 3.42294C8.002 2.66897 7.76337 2.09795 7.29111 1.70615C6.80672 1.30091 6.19521 1.09775 5.45517 1.09775C5.31603 1.09776 5.18061 1.10439 5.04892 1.11826L5.0206 1.12119L5.01767 1.09384C4.98271 0.738391 4.90355 0.410516 4.77939 0.110444L4.76572 0.0772405L4.80087 0.0723577C5.01168 0.0429175 5.23007 0.0274503 5.45517 0.0274358ZM3.18466 2.06552C3.31115 2.37106 3.39232 2.70426 3.42783 3.06455L3.43076 3.09189L3.40244 3.09482C3.04496 3.13252 2.71503 3.22183 2.4122 3.36142C1.99882 3.55205 1.67017 3.8494 1.42783 4.25497C1.1861 4.65964 1.06455 5.19202 1.06455 5.85263V6.73154H0.0274358V5.85263C0.0274422 5.0042 0.196816 4.29807 0.537201 3.7374C0.866545 3.16613 1.3202 2.73452 1.89658 2.44247L2.19247 2.30576C2.49468 2.1819 2.81576 2.09637 3.15537 2.04892L3.17685 2.04599L3.18466 2.06552Z" fill="url(#paint0_linear_0_30)" stroke="var(--stroke-0, #03161C)" stroke-width="0.0557561"/>
<defs>
<linearGradient id="paint0_linear_0_30" x1="11.4802" y1="0.426773" x2="2.76739" y2="15.2434" gradientUnits="userSpaceOnUse">
<stop stop-color="#03161C"/>
<stop offset="0.5" stop-color="#05242E"/>
<stop offset="1" stop-color="#03161C"/>
</linearGradient>
</defs>
</svg>
