<svg preserveAspectRatio="none" width="100%" height="100%" overflow="visible" style="display: block;" viewBox="0 0 21.8234 21.8234" fill="none" xmlns="http://www.w3.org/2000/svg">
<g id="Frame">
<rect width="21.8234" height="21.8234" rx="4.36468" fill="url(#paint0_linear_0_50)"/>
<rect x="0.272792" y="0.272792" width="21.2778" height="21.2778" rx="4.09189" stroke="var(--stroke-0, #525254)" stroke-opacity="0.05" stroke-width="0.545585"/>
<path id="Vector" d="M14.4288 9.74175V9.0489C14.4288 8.36413 14.4288 8.02175 14.2955 7.7602C14.1783 7.53014 13.9913 7.34309 13.7612 7.22587C13.4996 7.09261 13.1573 7.09261 12.4725 7.09261H9.04899C8.36422 7.09261 8.02184 7.09261 7.7603 7.22587C7.53023 7.34309 7.34319 7.53014 7.22596 7.7602C7.0927 8.02175 7.0927 8.36413 7.0927 9.0489V12.4724C7.0927 13.1572 7.0927 13.4995 7.22596 13.7611C7.34319 13.9912 7.53023 14.1782 7.7603 14.2954C8.02184 14.4287 8.36422 14.4287 9.04899 14.4287H9.74185M12.956 13.0884L12.2638 14.3738C12.1507 14.5839 12.0941 14.689 12.0251 14.7164C11.9653 14.7402 11.8977 14.7343 11.8429 14.7005C11.7797 14.6615 11.7422 14.5482 11.6672 14.3217L10.5571 10.969C10.4914 10.7706 10.4586 10.6715 10.4822 10.6054C10.5028 10.5479 10.548 10.5027 10.6055 10.4821C10.6716 10.4585 10.7707 10.4913 10.9691 10.557L14.3218 11.6671C14.5483 11.7421 14.6616 11.7796 14.7006 11.8428C14.7344 11.8976 14.7403 11.9652 14.7165 12.0251C14.6891 12.094 14.584 12.1506 14.3739 12.2637L13.0885 12.9559C13.0565 12.9731 13.0404 12.9817 13.0264 12.9928C13.014 13.0027 13.0027 13.0139 12.9929 13.0263C12.9818 13.0403 12.9732 13.0564 12.956 13.0884Z" stroke="var(--stroke-0, #00A0CD)" stroke-width="0.818377" stroke-linecap="round" stroke-linejoin="round"/>
</g>
<defs>
<linearGradient id="paint0_linear_0_50" x1="10.9117" y1="9.37005" x2="10.9117" y2="21.8234" gradientUnits="userSpaceOnUse">
<stop stop-color="#FAFAFA"/>
<stop offset="1" stop-color="#F5F5F5"/>
</linearGradient>
</defs>
</svg>
