<svg preserveAspectRatio="none" width="100%" height="100%" overflow="visible" style="display: block;" viewBox="0 0 8.36341 8.36341" fill="none" xmlns="http://www.w3.org/2000/svg">
<g id="Frame">
<path id="Vector" d="M1.7426 1.73872C1.7426 1.40029 1.7426 1.23108 1.81316 1.13781C1.87463 1.05654 1.96859 1.00626 2.07031 1.00019C2.18706 0.993213 2.32785 1.08708 2.60944 1.2748L6.27386 3.71774C6.50654 3.87285 6.62286 3.95042 6.66339 4.04817C6.69886 4.13365 6.69886 4.22969 6.66339 4.31517C6.62286 4.41292 6.50654 4.49045 6.27386 4.6456L2.60944 7.08851C2.32785 7.27624 2.18706 7.37012 2.07031 7.36315C1.96859 7.35709 1.87463 7.3068 1.81316 7.22554C1.7426 7.13225 1.7426 6.96303 1.7426 6.62462V1.73872Z" stroke="var(--stroke-0, #909091)" stroke-width="0.696951" stroke-linecap="round" stroke-linejoin="round"/>
</g>
</svg>
