<svg width="156" height="156" viewBox="0 0 156 156" fill="none" xmlns="http://www.w3.org/2000/svg">
<g filter="url(#filter0_d_81_113)">
<rect x="16" y="8" width="124" height="124" rx="32" fill="url(#paint0_linear_81_113)" shape-rendering="crispEdges"/>
<rect x="16.5" y="8.5" width="123" height="123" rx="31.5" stroke="#525254" stroke-opacity="0.05" shape-rendering="crispEdges"/>
<path opacity="0.6" d="M86.9229 51.4163C88.4289 51.628 89.8017 52.0557 91.0391 52.7024H91.0381C92.7647 53.5657 94.1495 54.7976 95.1914 56.3967L95.3955 56.7209L95.3965 56.7219C96.4247 58.4814 96.9365 60.553 96.9365 62.9319C96.9365 65.3083 96.4777 67.2765 95.5537 68.8303V68.8313C94.6324 70.3387 93.3736 71.5737 91.7812 72.5354L91.7793 72.5364C90.1925 73.453 88.3955 74.2229 86.3887 74.8469H86.3877L83.4395 75.7317C81.7582 76.2283 80.2883 76.7871 79.0303 77.4065L79.0293 77.4055C77.814 78.0212 76.8619 78.8414 76.1699 79.8635C75.517 80.8798 75.1866 82.2488 75.1865 83.9788C75.1865 86.4089 75.9044 88.2855 77.332 89.6204L77.627 89.8801C79.2922 91.2738 81.394 91.9729 83.9385 91.9729C84.0676 91.9729 84.1962 91.9705 84.3242 91.967L84.415 91.9651L84.4219 92.0559C84.5185 93.2927 84.7703 94.4334 85.1738 95.4797L85.2207 95.6008L85.0908 95.6096C84.7133 95.6353 84.3292 95.6506 83.9385 95.6506C81.5036 95.6506 79.3639 95.1704 77.5225 94.2083C75.6808 93.2874 74.2277 91.9476 73.165 90.1897L73.1641 90.1887C72.1359 88.4292 71.624 86.3576 71.624 83.9788C71.6241 81.6023 72.0828 79.6342 73.0068 78.0803V78.0793C73.9282 76.572 75.1869 75.3369 76.7793 74.3752L76.7803 74.3743C78.3672 73.4576 80.1649 72.6878 82.1719 72.0637H82.1729L85.1201 71.179L85.7422 70.9895L86.2686 70.8196C87.4795 70.4174 88.5663 69.9792 89.5293 69.5051C90.7444 68.8898 91.6966 68.0706 92.3887 67.0491C93.0424 66.0326 93.374 64.663 93.374 62.9319C93.374 60.3398 92.5571 58.3774 90.9336 57.0305H90.9326C89.9675 56.2228 88.8564 55.649 87.5986 55.3088L87.5312 55.2913L87.5283 55.2209C87.4641 53.8883 87.2274 52.6631 86.8193 51.5442L86.7646 51.3938L86.9229 51.4163ZM102.596 72.6057V75.6262C102.596 78.5419 102.012 80.9658 100.843 82.8928L100.845 82.8938C99.7122 84.8592 98.1527 86.3436 96.1699 87.3479L96.1709 87.3489C94.5369 88.1914 92.7289 88.6778 90.749 88.8127L90.6787 88.8176L90.6533 88.7512C90.2426 87.686 89.9875 86.5271 89.8896 85.2737L89.8818 85.1731L89.9824 85.1702C91.6071 85.1256 93.0801 84.799 94.4014 84.1897C95.8224 83.5343 96.9492 82.5108 97.7822 81.1165C98.6132 79.7254 99.0332 77.8971 99.0332 75.6262V72.6057H102.596ZM72.0615 44.3499C74.4961 44.3499 76.6353 44.8294 78.4766 45.7913L78.8174 45.969C80.3866 46.8206 81.6583 47.993 82.6309 49.4856L82.835 49.8098V49.8118C83.8631 51.5713 84.376 53.6419 84.376 56.0208C84.376 58.3974 83.9173 60.3662 82.9932 61.9202L82.9922 61.9211C82.0709 63.4283 80.8129 64.6627 79.2207 65.6243L79.2188 65.6252C77.632 66.5418 75.8349 67.3117 73.8281 67.9358L73.8271 67.9368L70.8789 68.8206H70.8779C69.1967 69.3172 67.7268 69.876 66.4688 70.4954L66.4678 70.4944C65.2528 71.1099 64.3013 71.9306 63.6094 72.9524C62.9563 73.9688 62.625 75.3383 62.625 77.0686C62.6251 79.6606 63.4429 81.6221 65.0664 82.969L65.4336 83.26C66.182 83.82 67.012 84.2492 67.9238 84.5481L68.3857 84.6868L68.4531 84.7043L68.4561 84.7737C68.5291 86.1101 68.7796 87.3372 69.2012 88.4573L69.2578 88.6086L69.0977 88.5862C67.5836 88.3756 66.2048 87.9465 64.9619 87.2971C63.1202 86.3763 61.6671 85.0364 60.6045 83.2786L60.6035 83.2776C59.5754 81.5181 59.0625 79.4474 59.0625 77.0686C59.0625 74.692 59.5212 72.7231 60.4453 71.1692L60.4463 71.1682L60.623 70.8889C61.5262 69.5079 62.7251 68.3666 64.2178 67.4651L64.2197 67.4641C65.8066 66.5474 67.6043 65.7767 69.6113 65.1526H69.6123L72.5605 64.2678L73.1816 64.0784C74.606 63.6304 75.8683 63.1357 76.9688 62.594L77.4121 62.3538C78.4185 61.7704 79.2234 61.0306 79.8291 60.136C80.482 59.1196 80.8135 57.7509 80.8135 56.0208C80.8135 53.4289 79.9963 51.4673 78.373 50.1204L78.3721 50.1194C76.7069 48.7259 74.6057 48.0267 72.0615 48.0266C71.5827 48.0266 71.1163 48.0511 70.6631 48.0989L70.5674 48.1086L70.5576 48.0129C70.4374 46.791 70.1642 45.6646 69.7373 44.6331L69.6895 44.5188L69.8125 44.5012C70.5375 44.4 71.2874 44.3499 72.0615 44.3499ZM64.2559 51.3547C64.6907 52.4051 64.9688 53.5498 65.0908 54.7883L65.1006 54.8831L65.0059 54.8928C63.7761 55.0224 62.6403 55.3276 61.5986 55.8079C60.1776 56.4632 59.0508 57.4869 58.2178 58.8811C57.3868 60.2721 56.9668 62.1005 56.9668 64.3713V67.3918H53.4043V64.3713C53.4043 61.455 53.9863 59.03 55.1562 57.1028C56.2887 55.1382 57.8468 53.6527 59.8291 52.6487L60.332 52.4036C61.5185 51.856 62.7928 51.4873 64.1543 51.2971L64.2275 51.2864L64.2559 51.3547Z" fill="url(#paint1_linear_81_113)" stroke="#323234" stroke-width="0.191658"/>
</g>
<defs>
<filter id="filter0_d_81_113" x="0" y="0" width="156" height="156" filterUnits="userSpaceOnUse" color-interpolation-filters="sRGB">
<feFlood flood-opacity="0" result="BackgroundImageFix"/>
<feColorMatrix in="SourceAlpha" type="matrix" values="0 0 0 0 0 0 0 0 0 0 0 0 0 0 0 0 0 0 127 0" result="hardAlpha"/>
<feOffset dy="8"/>
<feGaussianBlur stdDeviation="8"/>
<feComposite in2="hardAlpha" operator="out"/>
<feColorMatrix type="matrix" values="0 0 0 0 0 0 0 0 0 0 0 0 0 0 0 0 0 0 0.08 0"/>
<feBlend mode="normal" in2="BackgroundImageFix" result="effect1_dropShadow_81_113"/>
<feBlend mode="normal" in="SourceGraphic" in2="effect1_dropShadow_81_113" result="shape"/>
</filter>
<linearGradient id="paint0_linear_81_113" x1="78" y1="132" x2="78" y2="8" gradientUnits="userSpaceOnUse">
<stop stop-color="#E4E4E4"/>
<stop offset="1" stop-color="#FCFCFC"/>
</linearGradient>
<linearGradient id="paint1_linear_81_113" x1="77.9998" y1="44.4456" x2="77.9998" y2="95.5544" gradientUnits="userSpaceOnUse">
<stop stop-color="#3F3E41"/>
<stop offset="1" stop-color="#29292B"/>
</linearGradient>
</defs>
</svg>
