<svg width="76" height="80" viewBox="0 0 76 80" fill="none" xmlns="http://www.w3.org/2000/svg">
<rect x="-6" y="-4" width="88" height="88" fill="#2a2a2a"/>
<path d="M28.7891 0C32.5467 0 35.8415 0.739984 38.6734 2.21995C41.5052 3.63565 43.7381 5.69507 45.3718 8.39774C46.9511 11.1004 47.741 14.2856 47.741 17.9535C47.741 21.6214 47.0331 24.6462 45.6172 27.0272C44.2012 29.3437 42.2674 31.242 39.8168 32.722C37.3663 34.1376 34.589 35.3278 31.4851 36.293L26.9122 37.6646C24.2983 38.4368 22.0104 39.3053 20.0499 40.2706C18.1439 41.2358 16.646 42.5236 15.5568 44.1323C14.5223 45.741 14.0051 47.8967 14.0051 50.5992C14.0051 54.6532 15.285 57.7423 17.8446 59.8659C19.3528 61.1281 21.0881 62.0247 23.0496 62.5585C23.1637 64.645 23.5537 66.5638 24.2136 68.3168C21.8797 67.9922 19.7565 67.3319 17.8446 66.3327C15.0127 64.917 12.7799 62.8576 11.1461 60.1549C9.56679 57.4523 8.7769 54.2671 8.77688 50.5992C8.77688 46.9313 9.48483 43.9065 10.9008 41.5255C12.3167 39.209 14.2505 37.3107 16.7011 35.8307C19.1516 34.4151 21.9289 33.2249 25.0328 32.2597L29.6057 30.8881L30.5707 30.5939C32.7866 29.8971 34.7525 29.1267 36.468 28.2821C38.3741 27.3169 39.8719 26.0291 40.9611 24.4204C41.9956 22.8117 42.5128 20.656 42.5128 17.9535C42.5128 13.8995 41.2329 10.8103 38.6734 8.68682C36.0594 6.4991 32.7644 5.40578 28.7891 5.40578C28.0413 5.40578 27.3134 5.44356 26.6051 5.51815C26.4174 3.60974 25.9901 1.84892 25.3219 0.234176C26.4391 0.0781459 27.5949 6.56491e-06 28.7891 0Z" fill="white"/>
<path d="M16.5459 10.7738C17.2142 12.3882 17.642 14.1489 17.83 16.0569C15.9076 16.2594 14.1303 16.7363 12.4988 17.4886C10.2663 18.5181 8.49604 20.1269 7.18912 22.3145C5.88221 24.5023 5.22825 27.3662 5.22822 30.9052V35.4421H0V30.9052C3.38659e-05 26.401 0.898995 22.6685 2.69603 19.7085C4.43857 16.6844 6.83497 14.4 9.88429 12.8557C11.9272 11.8023 14.1481 11.1088 16.5459 10.7738Z" fill="white"/>
<path d="M51.8198 10.9591C54.1406 11.2853 56.2526 11.9444 58.1554 12.9389C60.9873 14.3546 63.2201 16.414 64.8539 19.1167C66.4332 21.8193 67.2231 25.0045 67.2231 28.6724C67.2231 32.3404 66.5152 35.3652 65.0992 37.7461C63.6833 40.0626 61.7495 41.9609 59.2989 43.4409C56.8484 44.8565 54.0711 46.0467 50.9672 47.0119L46.3943 48.3835C43.7803 49.1557 41.4925 50.0243 39.532 50.9895C37.6259 51.9547 36.1281 53.2425 35.0389 54.8512C34.0044 56.4599 33.4872 58.6156 33.4872 61.3181C33.4872 65.3721 34.7671 68.4613 37.3266 70.5848C39.9406 72.7725 43.2356 73.8658 47.2109 73.8658C47.4131 73.8658 47.6138 73.8618 47.8131 73.8564C47.9639 75.7878 48.3567 77.5714 48.9883 79.209C48.4055 79.2487 47.8132 79.2716 47.2109 79.2716C43.4533 79.2716 40.1585 78.5316 37.3266 77.0517C34.4948 75.636 32.2619 73.5765 30.6282 70.8739C29.0489 68.1712 28.259 64.986 28.259 61.3181C28.259 57.6502 28.9669 54.6254 30.3828 52.2444C31.7988 49.9279 33.7326 48.0296 36.1832 46.5496C38.6337 45.134 41.411 43.9438 44.5149 42.9786L49.0878 41.607L50.0528 41.3128C52.2687 40.616 54.2345 39.8456 55.9501 39.001C57.8561 38.0358 59.354 36.748 60.4432 35.1393C61.4777 33.5306 61.9949 31.3749 61.9949 28.6724C61.9949 24.6184 60.715 21.5293 58.1554 19.4057C56.6412 18.1385 54.8983 17.2393 52.9272 16.7063C52.827 14.6259 52.4585 12.7104 51.8198 10.9591Z" fill="white"/>
<path d="M76 48.3629C76 52.8672 75.101 56.5996 73.304 59.5596C71.5614 62.5838 69.1651 64.8681 66.1157 66.4125C63.6009 67.7092 60.8167 68.4587 57.7643 68.6668C57.1328 67.0292 56.7408 65.2455 56.59 63.3142C59.1276 63.2445 61.4315 62.7339 63.5012 61.7796C65.7338 60.75 67.5039 59.1413 68.8109 56.9537C70.1178 54.7659 70.7718 51.902 70.7718 48.3629V43.8261H76V48.3629Z" fill="white"/>
</svg>
