<svg width="409" height="132" viewBox="0 0 409 132" fill="none" xmlns="http://www.w3.org/2000/svg">
<path d="M56.7891 24.375C60.5467 24.375 63.8415 25.115 66.6734 26.595C69.5052 28.0106 71.7381 30.0701 73.3718 32.7727C74.9511 35.4754 75.741 38.6606 75.741 42.3285C75.741 45.9964 75.0331 49.0212 73.6172 51.4022C72.2012 53.7187 70.2674 55.617 67.8168 57.097C65.3663 58.5126 62.589 59.7028 59.4851 60.668L54.9122 62.0396C52.2983 62.8118 50.0104 63.6803 48.0499 64.6456C46.1439 65.6108 44.646 66.8986 43.5568 68.5073C42.5223 70.116 42.0051 72.2717 42.0051 74.9742C42.0051 79.0282 43.285 82.1173 45.8446 84.2409C47.3528 85.5031 49.0881 86.3997 51.0496 86.9335C51.1637 89.02 51.5537 90.9388 52.2136 92.6918C49.8797 92.3672 47.7565 91.7069 45.8446 90.7077C43.0127 89.292 40.7799 87.2326 39.1461 84.5299C37.5668 81.8273 36.7769 78.6421 36.7769 74.9742C36.7769 71.3063 37.4848 68.2815 38.9008 65.9005C40.3167 63.584 42.2505 61.6857 44.7011 60.2057C47.1516 58.7901 49.9289 57.5999 53.0328 56.6347L57.6057 55.2631L58.5707 54.9689C60.7866 54.2721 62.7525 53.5017 64.468 52.6571C66.3741 51.6919 67.8719 50.4041 68.9611 48.7954C69.9956 47.1867 70.5128 45.031 70.5128 42.3285C70.5128 38.2745 69.2329 35.1853 66.6734 33.0618C64.0594 30.8741 60.7644 29.7808 56.7891 29.7808C56.0413 29.7808 55.3134 29.8186 54.6051 29.8931C54.4174 27.9847 53.9901 26.2239 53.3219 24.6092C54.4391 24.4531 55.5949 24.375 56.7891 24.375Z" fill="white"/>
<path d="M44.5459 35.1488C45.2142 36.7632 45.642 38.5239 45.83 40.4319C43.9076 40.6344 42.1303 41.1113 40.4988 41.8636C38.2663 42.8931 36.496 44.5019 35.1891 46.6895C33.8822 48.8773 33.2282 51.7412 33.2282 55.2802V59.8171H28V55.2802C28 50.776 28.899 47.0435 30.696 44.0835C32.4386 41.0594 34.835 38.775 37.8843 37.2307C39.9272 36.1773 42.1481 35.4838 44.5459 35.1488Z" fill="white"/>
<path d="M79.8198 35.3341C82.1406 35.6603 84.2526 36.3194 86.1554 37.3139C88.9873 38.7296 91.2201 40.789 92.8539 43.4917C94.4332 46.1943 95.2231 49.3795 95.2231 53.0474C95.2231 56.7154 94.5152 59.7402 93.0992 62.1211C91.6833 64.4376 89.7495 66.3359 87.2989 67.8159C84.8484 69.2315 82.0711 70.4217 78.9672 71.3869L74.3943 72.7585C71.7803 73.5307 69.4925 74.3993 67.532 75.3645C65.6259 76.3297 64.1281 77.6175 63.0389 79.2262C62.0043 80.8349 61.4872 82.9906 61.4872 85.6931C61.4872 89.7471 62.7671 92.8363 65.3266 94.9598C67.9406 97.1475 71.2356 98.2408 75.2109 98.2408C75.4131 98.2408 75.6138 98.2368 75.8131 98.2314C75.9639 100.163 76.3567 101.946 76.9883 103.584C76.4055 103.624 75.8132 103.647 75.2109 103.647C71.4533 103.647 68.1585 102.907 65.3266 101.427C62.4948 100.011 60.2619 97.9515 58.6282 95.2489C57.0489 92.5462 56.259 89.361 56.259 85.6931C56.259 82.0252 56.9669 79.0004 58.3828 76.6194C59.7988 74.3029 61.7326 72.4046 64.1832 70.9246C66.6337 69.509 69.411 68.3188 72.5149 67.3536L77.0878 65.982L78.0528 65.6878C80.2687 64.991 82.2345 64.2206 83.9501 63.376C85.8561 62.4108 87.354 61.123 88.4432 59.5143C89.4777 57.9056 89.9949 55.7499 89.9949 53.0474C89.9949 48.9934 88.715 45.9043 86.1554 43.7807C84.6412 42.5135 82.8983 41.6143 80.9272 41.0813C80.827 39.0009 80.4585 37.0854 79.8198 35.3341Z" fill="white"/>
<path d="M104 72.7379C104 77.2422 103.101 80.9746 101.304 83.9346C99.5614 86.9588 97.1651 89.2431 94.1157 90.7875C91.6009 92.0842 88.8167 92.8337 85.7643 93.0418C85.1328 91.4042 84.7408 89.6205 84.59 87.6892C87.1276 87.6195 89.4315 87.1089 91.5012 86.1546C93.7338 85.125 95.5039 83.5163 96.8109 81.3287C98.1178 79.1409 98.7718 76.277 98.7718 72.7379V68.2011H104V72.7379Z" fill="white"/>
<path d="M374.478 80.3373C371.654 80.3373 369.311 79.7064 367.449 78.4448C365.586 77.1831 364.445 75.2756 364.024 72.7223L368.35 71.6859C368.59 72.9176 368.996 73.8938 369.567 74.6148C370.137 75.3357 370.843 75.8464 371.684 76.1468C372.555 76.4472 373.487 76.5974 374.478 76.5974C375.95 76.5974 377.076 76.312 377.857 75.7412C378.668 75.1705 379.074 74.4345 379.074 73.5334C379.074 72.6322 378.698 71.9713 377.948 71.5508C377.197 71.1302 376.085 70.7848 374.613 70.5144L373.081 70.2441C371.579 69.9737 370.212 69.5832 368.981 69.0725C367.749 68.5619 366.773 67.8559 366.052 66.9548C365.331 66.0536 364.971 64.8971 364.971 63.4852C364.971 61.3825 365.752 59.7603 367.314 58.6188C368.876 57.4473 370.948 56.8615 373.532 56.8615C376.025 56.8615 378.068 57.4323 379.66 58.5738C381.282 59.6852 382.333 61.2022 382.814 63.1247L378.488 64.3413C378.218 62.9896 377.647 62.0433 376.776 61.5026C375.905 60.9319 374.823 60.6465 373.532 60.6465C372.27 60.6465 371.279 60.8868 370.558 61.3674C369.837 61.818 369.476 62.4639 369.476 63.305C369.476 64.2062 369.822 64.867 370.513 65.2876C371.234 65.7081 372.195 66.0235 373.397 66.2338L374.974 66.5042C376.566 66.7745 378.023 67.15 379.344 67.6306C380.666 68.1113 381.702 68.8022 382.453 69.7033C383.234 70.6045 383.625 71.8061 383.625 73.3081C383.625 75.531 382.799 77.2582 381.147 78.4898C379.495 79.7215 377.272 80.3373 374.478 80.3373Z" fill="white"/>
<path d="M345.711 80.3333C343.878 80.3333 342.181 79.8827 340.619 78.9815C339.057 78.0804 337.795 76.7887 336.834 75.1065C335.903 73.3942 335.437 71.3365 335.437 68.9334V68.2575C335.437 65.8844 335.903 63.8417 336.834 62.1295C337.765 60.4173 339.012 59.1105 340.574 58.2094C342.136 57.3082 343.848 56.8576 345.711 56.8576C347.152 56.8576 348.354 57.0378 349.315 57.3983C350.307 57.7588 351.118 58.2244 351.748 58.7951C352.379 59.3358 352.86 59.9066 353.19 60.5074H353.911V48.1612H358.552V79.7025H354.001V76.5484H353.28C352.71 77.5096 351.839 78.3808 350.667 79.1618C349.526 79.9428 347.873 80.3333 345.711 80.3333ZM347.017 76.278C349.03 76.278 350.682 75.6322 351.974 74.3405C353.295 73.0488 353.956 71.2014 353.956 68.7982V68.3927C353.956 66.0196 353.311 64.1872 352.019 62.8955C350.727 61.6038 349.06 60.958 347.017 60.958C345.035 60.958 343.383 61.6038 342.061 62.8955C340.769 64.1872 340.123 66.0196 340.123 68.3927V68.7982C340.123 71.2014 340.769 73.0488 342.061 74.3405C343.383 75.6322 345.035 76.278 347.017 76.278Z" fill="white"/>
<path d="M308.81 79.7005V57.4865H313.361V60.8208H314.082C314.503 59.9196 315.254 59.0785 316.335 58.2975C317.416 57.5165 319.024 57.126 321.156 57.126C322.839 57.126 324.325 57.5015 325.617 58.2525C326.939 59.0034 327.975 60.0698 328.726 61.4516C329.477 62.8034 329.853 64.4405 329.853 66.3631V79.7005H325.212V66.7235C325.212 64.801 324.731 63.3892 323.77 62.488C322.809 61.5568 321.487 61.0912 319.805 61.0912C317.882 61.0912 316.335 61.722 315.164 62.9836C314.022 64.2453 313.451 66.0777 313.451 68.4808V79.7005H308.81Z" fill="white"/>
<path d="M289.691 80.3373C288.099 80.3373 286.672 80.0669 285.411 79.5262C284.179 78.9855 283.188 78.1894 282.437 77.1381C281.716 76.0867 281.355 74.81 281.355 73.3081C281.355 71.7761 281.716 70.5144 282.437 69.5231C283.188 68.5018 284.194 67.7358 285.456 67.2251C286.748 66.7144 288.204 66.4591 289.827 66.4591H296.585V65.0172C296.585 63.7255 296.195 62.6892 295.414 61.9081C294.633 61.1271 293.431 60.7366 291.809 60.7366C290.217 60.7366 289 61.1121 288.159 61.8631C287.318 62.6141 286.763 63.5903 286.492 64.7919L282.167 63.3951C282.527 62.1935 283.098 61.1121 283.879 60.1509C284.69 59.1596 285.756 58.3635 287.078 57.7627C288.4 57.1619 289.992 56.8615 291.854 56.8615C294.738 56.8615 297.006 57.5975 298.658 59.0694C300.31 60.5414 301.136 62.6291 301.136 65.3326V74.4796C301.136 75.3808 301.557 75.8314 302.398 75.8314H304.29V79.7064H300.821C299.77 79.7064 298.913 79.4361 298.253 78.8954C297.592 78.3547 297.261 77.6187 297.261 76.6875V76.5523H296.585C296.345 77.0029 295.985 77.5286 295.504 78.1294C295.023 78.7302 294.317 79.2558 293.386 79.7064C292.455 80.127 291.223 80.3373 289.691 80.3373ZM290.367 76.5072C292.23 76.5072 293.732 75.9816 294.873 74.9302C296.015 73.8488 296.585 72.3768 296.585 70.5144V70.0638H290.097C288.865 70.0638 287.874 70.3342 287.123 70.8749C286.372 71.3855 285.997 72.1515 285.997 73.1729C285.997 74.1942 286.387 75.0053 287.168 75.6061C287.949 76.2069 289.015 76.5072 290.367 76.5072Z" fill="white"/>
<path d="M255.073 79.7025V48.1612H259.715V60.6426H260.435C260.736 60.0718 261.156 59.5161 261.697 58.9754C262.268 58.4347 263.004 57.9991 263.905 57.6687C264.836 57.3082 266.008 57.128 267.42 57.128C269.102 57.128 270.589 57.5034 271.88 58.2544C273.202 59.0054 274.238 60.0718 274.989 61.4536C275.74 62.8054 276.116 64.4425 276.116 66.365V79.7025H271.475V66.7255C271.475 64.803 270.994 63.3912 270.033 62.49C269.072 61.5588 267.75 61.0931 266.068 61.0931C264.145 61.0931 262.598 61.724 261.427 62.9856C260.285 64.2473 259.715 66.0797 259.715 68.4828V79.7025H255.073Z" fill="white"/>
<path d="M237.656 79.709V57.4949H242.207V60.1083H242.927C243.288 59.1771 243.859 58.5012 244.64 58.0807C245.451 57.6301 246.442 57.4048 247.614 57.4048H250.272V61.5953H247.433C245.931 61.5953 244.7 62.0158 243.739 62.8569C242.777 63.668 242.297 64.9296 242.297 66.6419V79.709H237.656Z" fill="white"/>
<path d="M221.5 80.3373C219.247 80.3373 217.28 79.8717 215.597 78.9404C213.915 77.9792 212.593 76.6424 211.632 74.9302C210.701 73.1879 210.235 71.1753 210.235 68.8923V68.3516C210.235 66.0386 210.701 64.0259 211.632 62.3137C212.563 60.5714 213.855 59.2347 215.507 58.3034C217.189 57.3422 219.127 56.8615 221.32 56.8615C223.453 56.8615 225.315 57.3422 226.907 58.3034C228.529 59.2347 229.791 60.5414 230.692 62.2236C231.593 63.9058 232.044 65.8733 232.044 68.1263V69.8836H214.967C215.027 71.8361 215.672 73.3982 216.904 74.5697C218.166 75.7112 219.728 76.282 221.59 76.282C223.332 76.282 224.639 75.8914 225.51 75.1104C226.411 74.3294 227.102 73.4282 227.583 72.4069L231.413 74.3895C230.992 75.2306 230.377 76.1167 229.566 77.048C228.785 77.9792 227.748 78.7602 226.457 79.391C225.165 80.0218 223.513 80.3373 221.5 80.3373ZM215.012 66.3239H227.313C227.193 64.6417 226.592 63.335 225.51 62.4038C224.429 61.4425 223.017 60.9619 221.275 60.9619C219.532 60.9619 218.106 61.4425 216.994 62.4038C215.913 63.335 215.252 64.6417 215.012 66.3239Z" fill="white"/>
<path d="M182.47 88.7182V57.4924H187.021V60.6916H187.742C188.313 59.7003 189.169 58.8141 190.31 58.0331C191.482 57.2521 193.149 56.8615 195.312 56.8615C197.174 56.8615 198.872 57.3121 200.404 58.2133C201.966 59.1145 203.212 60.4212 204.144 62.1334C205.105 63.8156 205.585 65.8583 205.585 68.2615V68.9373C205.585 71.3405 205.12 73.3982 204.189 75.1104C203.257 76.7926 202.011 78.0843 200.449 78.9855C198.887 79.8867 197.174 80.3373 195.312 80.3373C193.87 80.3373 192.654 80.157 191.662 79.7966C190.671 79.4361 189.875 78.9855 189.274 78.4448C188.673 77.874 188.193 77.2883 187.832 76.6875H187.111V88.7182H182.47ZM193.96 76.282C196.003 76.282 197.67 75.6361 198.962 74.3444C200.253 73.0527 200.899 71.2053 200.899 68.8022V68.3966C200.899 66.0235 200.238 64.1911 198.917 62.8994C197.625 61.6078 195.973 60.9619 193.96 60.9619C191.978 60.9619 190.325 61.6078 189.004 62.8994C187.712 64.1911 187.066 66.0235 187.066 68.3966V68.8022C187.066 71.2053 187.712 73.0527 189.004 74.3444C190.325 75.6361 191.978 76.282 193.96 76.282Z" fill="white"/>
<path d="M163.309 80.1106C161.626 80.1106 160.124 79.7351 158.803 78.9841C157.481 78.2331 156.445 77.1667 155.694 75.7849C154.943 74.4031 154.567 72.751 154.567 70.8285V57.491H159.208V70.513C159.208 72.4356 159.689 73.8624 160.65 74.7936C161.611 75.6948 162.948 76.1454 164.66 76.1454C166.553 76.1454 168.07 75.5146 169.211 74.2529C170.383 72.9612 170.969 71.1138 170.969 68.7107V57.491H175.61V79.7051H171.059V76.3707H170.338C169.917 77.2719 169.166 78.128 168.085 78.9391C167.003 79.7201 165.411 80.1106 163.309 80.1106Z" fill="white"/>
<path d="M137.916 80.3347C135.543 80.3347 133.44 79.9141 131.608 79.073C129.775 78.2319 128.333 77.0003 127.282 75.3782C126.261 73.726 125.75 71.7284 125.75 69.3854V68.2589H130.571V69.3854C130.571 71.6083 131.232 73.2754 132.554 74.3869C133.906 75.4984 135.693 76.0541 137.916 76.0541C140.169 76.0541 141.866 75.5885 143.008 74.6573C144.149 73.696 144.72 72.4644 144.72 70.9624C144.72 69.9711 144.449 69.1601 143.909 68.5292C143.368 67.8984 142.602 67.4028 141.611 67.0423C140.619 66.6518 139.433 66.2913 138.051 65.9609L136.384 65.5553C134.371 65.0747 132.614 64.489 131.112 63.798C129.64 63.0771 128.499 62.1309 127.688 60.9593C126.876 59.7878 126.471 58.2858 126.471 56.4534C126.471 54.591 126.922 52.9989 127.823 51.6772C128.754 50.3555 130.031 49.3341 131.653 48.6132C133.275 47.8922 135.182 47.5318 137.375 47.5318C139.568 47.5318 141.521 47.9073 143.233 48.6582C144.975 49.4092 146.342 50.5207 147.333 51.9926C148.325 53.4645 148.82 55.3119 148.82 57.5349V59.157H143.999V57.5349C143.999 56.1831 143.713 55.0867 143.143 54.2456C142.602 53.4045 141.836 52.7886 140.845 52.3981C139.853 52.0076 138.697 51.8124 137.375 51.8124C135.453 51.8124 133.951 52.2179 132.869 53.029C131.818 53.81 131.292 54.9064 131.292 56.3183C131.292 57.2795 131.518 58.0756 131.968 58.7064C132.449 59.3072 133.14 59.8028 134.041 60.1933C134.942 60.5838 136.068 60.9293 137.42 61.2297L139.087 61.6352C141.13 62.0858 142.932 62.6716 144.495 63.3925C146.057 64.0834 147.288 65.0297 148.189 66.2312C149.091 67.4328 149.541 68.9798 149.541 70.8723C149.541 72.7648 149.06 74.4169 148.099 75.8288C147.168 77.2406 145.831 78.3521 144.089 79.1631C142.347 79.9442 140.289 80.3347 137.916 80.3347Z" fill="white"/>
</svg>
